<svg xmlns="http://www.w3.org/2000/svg" width="396" height="334" viewBox="0 0 396 334">
  <defs>
    <linearGradient id="laptop-a" x1="-103.034%" x2="125.372%" y1="144.849%" y2="3.726%">
      <stop offset="0%" stop-color="#292376"/>
      <stop offset="100%" stop-color="#5D278F" stop-opacity="0"/>
    </linearGradient>
    <linearGradient id="laptop-b" x1="-107.989%" x2="89.886%" y1="114.56%" y2="34.375%">
      <stop offset="0%" stop-color="#292376"/>
      <stop offset="100%" stop-color="#5D278F" stop-opacity="0"/>
    </linearGradient>
    <linearGradient id="laptop-c" x1=".001%" x2="100.003%" y1="49.87%" y2="49.87%">
      <stop offset="0%" stop-color="#292376"/>
      <stop offset="100%" stop-color="#5D278F"/>
    </linearGradient>
    <linearGradient id="laptop-d" x1=".013%" x2="100.019%" y1="50.04%" y2="50.04%">
      <stop offset="0%" stop-color="#5D278F"/>
      <stop offset="100%" stop-color="#292376"/>
    </linearGradient>
    <linearGradient id="laptop-e" x1=".002%" x2="100.007%" y1="49.893%" y2="49.893%">
      <stop offset="0%" stop-color="#292376"/>
      <stop offset="100%" stop-color="#5D278F"/>
    </linearGradient>
    <linearGradient id="laptop-f" x1=".013%" x2="100.019%" y1="50.001%" y2="50.001%">
      <stop offset="0%" stop-color="#5D278F"/>
      <stop offset="100%" stop-color="#292376"/>
    </linearGradient>
    <linearGradient id="laptop-g" x1="0%" x2="100%" y1="50.01%" y2="50.01%">
      <stop offset="0%" stop-color="#E76C6B"/>
      <stop offset="100%" stop-color="#FBB78E"/>
    </linearGradient>
    <linearGradient id="laptop-h" x1="0%" x2="100.148%" y1="49.693%" y2="49.693%">
      <stop offset="0%" stop-color="#E76C6B"/>
      <stop offset="100%" stop-color="#FBB78E"/>
    </linearGradient>
    <linearGradient id="laptop-i" x1=".311%" x2="100%" y1="50.125%" y2="50.125%">
      <stop offset="0%" stop-color="#E76C6B"/>
      <stop offset="100%" stop-color="#FBB78E"/>
    </linearGradient>
    <linearGradient id="laptop-j" x1="0%" x2="99.955%" y1="49.964%" y2="49.964%">
      <stop offset="0%" stop-color="#E76C6B"/>
      <stop offset="100%" stop-color="#FBB78E"/>
    </linearGradient>
    <linearGradient id="laptop-k" x1=".032%" x2="100.071%" y1="49.908%" y2="49.908%">
      <stop offset="0%" stop-color="#FBB78E"/>
      <stop offset="100%" stop-color="#E76C6B"/>
    </linearGradient>
    <linearGradient id="laptop-l" x1="-.037%" x2="100.257%" y1="49.909%" y2="49.909%">
      <stop offset="0%" stop-color="#5D278F"/>
      <stop offset="100%" stop-color="#292376"/>
    </linearGradient>
    <linearGradient id="laptop-m" x1=".009%" x2="100%" y1="50.193%" y2="50.193%">
      <stop offset="0%" stop-color="#5D278F"/>
      <stop offset="100%" stop-color="#292376"/>
    </linearGradient>
    <linearGradient id="laptop-n" x1=".01%" x2="100%" y1="50.218%" y2="50.218%">
      <stop offset="0%" stop-color="#FFF" stop-opacity=".25"/>
      <stop offset="100%" stop-color="#DBF9EA" stop-opacity="0"/>
    </linearGradient>
    <linearGradient id="laptop-o" x1="-.041%" x2="100%" y1="49.972%" y2="49.972%">
      <stop offset="0%" stop-color="#FFF" stop-opacity=".25"/>
      <stop offset="100%" stop-color="#DBF9EA" stop-opacity="0"/>
    </linearGradient>
    <linearGradient id="laptop-p" x1="15.968%" x2="120.213%" y1="48.181%" y2="53.763%">
      <stop offset="0%" stop-color="#292376"/>
      <stop offset="100%" stop-color="#5D278F" stop-opacity="0"/>
    </linearGradient>
    <linearGradient id="laptop-q" x1="14.867%" x2="85.128%" y1="26.971%" y2="73.034%">
      <stop offset="0%" stop-color="#5D278F"/>
      <stop offset="100%" stop-color="#292376"/>
    </linearGradient>
    <linearGradient id="laptop-r" x1="74.093%" x2="18.014%" y1="46.746%" y2="52.526%">
      <stop offset="0%" stop-color="#DBF9EA"/>
      <stop offset="100%" stop-color="#C0DDE2"/>
    </linearGradient>
    <linearGradient id="laptop-s" x1="13.587%" x2="86.413%" y1="26.58%" y2="73.42%">
      <stop offset="0%" stop-color="#25E581"/>
      <stop offset="100%" stop-color="#C4E138"/>
    </linearGradient>
    <linearGradient id="laptop-t" x1="-.03%" x2="100.013%" y1="49.999%" y2="49.999%">
      <stop offset="0%" stop-color="#DBF9EA"/>
      <stop offset="100%" stop-color="#C0DDE2"/>
    </linearGradient>
    <linearGradient id="laptop-u" x1="-.03%" x2="100.03%" y1="49.994%" y2="49.994%">
      <stop offset="0%" stop-color="#DBF9EA"/>
      <stop offset="100%" stop-color="#C0DDE2"/>
    </linearGradient>
    <linearGradient id="laptop-v" x1="100.867%" x2="-4.942%" y1="58.477%" y2="40.84%">
      <stop offset="0%" stop-color="#DBF9EA"/>
      <stop offset="100%" stop-color="#C0DDE2"/>
    </linearGradient>
    <linearGradient id="laptop-w" x1="-.016%" x2="99.956%" y1="49.994%" y2="49.994%">
      <stop offset="0%" stop-color="#5D278F"/>
      <stop offset="100%" stop-color="#292376"/>
    </linearGradient>
    <linearGradient id="laptop-x" x1="99.319%" x2="-3.211%" y1="51.911%" y2="48.742%">
      <stop offset="0%" stop-color="#5D278F"/>
      <stop offset="100%" stop-color="#292376"/>
    </linearGradient>
    <linearGradient id="laptop-y" x1="97.815%" x2="5.942%" y1="50.006%" y2="50.006%">
      <stop offset="0%" stop-color="#DBF9EA"/>
      <stop offset="100%" stop-color="#C0DDE2"/>
    </linearGradient>
    <linearGradient id="laptop-z" x1=".014%" x2="99.986%" y1="50.003%" y2="50.003%">
      <stop offset="5%" stop-color="#ED1E79"/>
      <stop offset="32%" stop-color="#D9E021"/>
      <stop offset="100%" stop-color="#29C7E2"/>
    </linearGradient>
    <linearGradient id="laptop-A" x1="-.015%" x2="100.021%" y1="50%" y2="50%">
      <stop offset="0%" stop-color="#5D278F"/>
      <stop offset="100%" stop-color="#292376"/>
    </linearGradient>
    <linearGradient id="laptop-B" x1=".009%" x2="99.999%" y1="50%" y2="50%">
      <stop offset="0%" stop-color="#5D278F"/>
      <stop offset="100%" stop-color="#292376"/>
    </linearGradient>
    <linearGradient id="laptop-C" x1="-.001%" x2="99.991%" y1="50%" y2="50%">
      <stop offset="0%" stop-color="#5D278F"/>
      <stop offset="100%" stop-color="#292376"/>
    </linearGradient>
    <linearGradient id="laptop-D" x1="6.168%" x2="82.517%" y1="47.415%" y2="76.734%">
      <stop offset="0%" stop-color="#FFF" stop-opacity=".25"/>
      <stop offset="100%" stop-color="#DBF9EA" stop-opacity="0"/>
    </linearGradient>
  </defs>
  <g fill="none" fill-rule="evenodd">
    <g fill-rule="nonzero" transform="translate(214 220)">
      <path fill="url(#laptop-a)" d="M34.1615385,83.1422101 C33.7433285,83.1394621 33.3320419,83.0352812 32.9630342,82.8386232 C29.8232906,81.152029 19.5600427,75.1308877 19.6605804,69.0928804 C19.7902347,66.6169839 21.3738298,64.452156 23.6957265,63.5777174 L92.5844017,23.6054348 C103.776068,17.1120471 103.708547,14.514692 103.708547,14.4978261 C103.303419,13.654529 99.2521368,12.5919746 95.1502137,12.5919746 C93.7518004,12.5919746 92.6181624,11.4593037 92.6181624,10.0620833 C92.6181624,8.66486295 93.7518004,7.53219203 95.1502137,7.53219203 C97.9354701,7.53219203 107.185897,7.93697464 108.654487,13.1991486 C109.78547,17.3650362 105.616026,21.9188406 95.1502137,27.9905797 L26.092735,68.064058 C25.3668803,68.4351087 24.7423077,68.8736232 24.7254274,69.210942 C24.7254274,71.2179891 30.3128205,75.6874638 35.3769231,78.4197464 C36.3634257,78.9866775 36.850168,80.141554 36.566748,81.2428027 C36.2833279,82.3440514 35.2993873,83.1210749 34.1615385,83.1422101 Z"/>
      <path fill="url(#laptop-b)" d="M84.4987179,112.741938 L84.1442308,112.741938 C83.239616,112.726874 82.4117609,112.23076 81.9725105,111.440477 C81.5332601,110.650194 81.5493469,109.685805 82.0147113,108.910586 C82.4800757,108.135367 83.3240177,107.667092 84.2286325,107.682156 C84.3467949,107.682156 96.6525641,107.833949 104.957692,102.92596 L167.313675,66.7147826 C171.736325,64.1511594 174.589103,62.3127717 176.412179,61.0140942 C175.635684,61.1658877 174.825427,61.351413 174.048932,61.5538043 C172.697132,61.9124242 171.310315,61.1082279 170.951389,59.7575815 C170.592463,58.4069352 171.397346,57.0213011 172.749145,56.6626812 C182.792949,53.9978623 183.85641,56.5614855 184.312179,57.6577717 C185.460043,60.4069203 183.586325,63.122337 169.862607,71.1505254 L107.523504,107.294239 C98.7288462,112.488949 86.7775641,112.741938 84.4987179,112.741938 Z"/>
      <path fill="url(#laptop-c)" d="M10.7316239,37.4186413 L66.6055556,9.10072464 L67.8040598,8.52728261 L77.1557692,4.36139493 C79.7938939,3.13353862 82.6880925,2.55519268 85.5959402,2.67480072 L96.4668803,3.31570652 C97.8848291,3.31570652 98.1549145,5.50827899 96.9564103,7.46472826 L96.2305556,8.61161232 C95.4445315,9.98538397 94.3312604,11.1440522 92.9895299,11.9848007 C92.0483081,12.5693805 90.889866,12.687615 89.8497863,12.3052536 L81.0213675,8.61161232 C80.2241718,8.34856923 79.3497126,8.47338541 78.6581197,8.94893116 C78.3611954,9.12876721 78.0789759,9.33179188 77.8141026,9.55610507 L69.7115385,16.4880072 C68.5696645,17.4580186 67.3373956,18.3164824 66.0316239,19.0516304 C65.4225476,19.411965 64.7910633,19.7330712 64.1410256,20.0129891 L10.4446581,43.3891848 C9.82008547,43.6590399 9.36431624,43.2879891 9.38074268,42.5458877 L9.55,39.3919565 C9.62011475,38.5879238 10.0556832,37.8605232 10.7316239,37.4186413 Z"/>
      <path fill="url(#laptop-d)" d="M93.4621795,1.32552536 C93.2931879,1.22442409 93.101862,1.16649599 92.9051282,1.15686594 L82.0510684,0.499094203 C79.1424964,0.370146115 76.2460953,0.948932182 73.6108974,2.18568841 L64.2254274,6.45277174 L62.9594017,7.02621377 L7.15299145,35.3441304 C6.47582582,35.782354 6.04439221,36.5132912 5.98824786,37.3174457 L5.81944444,40.4713768 C5.76583821,40.797154 5.90358431,41.1248411 6.17393162,41.3146739 L9.73568376,43.3891848 C9.46533644,43.199352 9.32759035,42.8716649 9.38119658,42.5458877 L9.55,39.3919565 C9.62011475,38.5879238 10.0556832,37.8605232 10.7316239,37.4186413 L66.6055556,9.10072464 L67.8040598,8.52728261 L77.1557692,4.36139493 C79.7938939,3.13353862 82.6880925,2.55519268 85.5959402,2.67480072 L96.4668803,3.31570652 C96.6583331,3.32527962 96.8442093,3.38331636 97.0070513,3.48436594 L93.4621795,1.32552536 Z"/>
      <path fill="url(#laptop-e)" d="M94.2893162,85.8576268 L150.163248,57.5397101 L151.361752,56.9662681 L160.713462,52.7835145 C163.348659,51.5467583 166.245061,50.9679722 169.153632,51.0969203 L180.024573,51.7209601 C181.442521,51.8052899 181.712607,53.9135326 180.497222,55.8699819 L179.788248,57.0168659 C179.001488,58.3956288 177.881388,59.5553635 176.530342,60.3900543 C175.606762,61.0253278 174.439432,61.193729 173.373718,60.8454348 L164.545299,57.1011957 C163.753632,56.8383966 162.884329,56.9633696 162.198932,57.4385145 C161.902007,57.6183505 161.619788,57.8213752 161.354915,58.0456884 L153.201709,64.9269928 C152.081935,65.899326 150.872389,66.7633576 149.589316,67.5074819 C148.9784,67.8644628 148.347125,68.1854631 147.698718,68.4688406 L94.0023504,91.8281703 C93.3777778,92.0980254 92.9051282,91.7269746 92.9388889,90.9848732 L93.1076923,87.830942 C93.1778071,87.0269093 93.6133756,86.2995087 94.2893162,85.8576268 L94.2893162,85.8576268 Z"/>
      <path fill="url(#laptop-f)" d="M177.002991,49.7645109 C176.840149,49.6634613 176.654273,49.6054245 176.462821,49.5958514 L165.608761,48.9718116 C162.700189,48.8428635 159.803788,49.4216496 157.16859,50.6584058 L147.8,54.8242935 L146.601496,55.3977355 L90.7106838,83.7831159 C90.0347431,84.2249979 89.5991746,84.9523985 89.5290598,85.7564312 L89.3771368,88.9103623 C89.3235305,89.2361395 89.4612766,89.5638266 89.7316239,89.7536594 L93.3440171,91.8281703 C93.0736698,91.6383375 92.9359237,91.3106504 92.9895299,90.9848732 L93.1583333,87.830942 C93.2284481,87.0269093 93.6640166,86.2995087 94.3399573,85.8576268 L150.213889,57.5397101 L151.412393,56.9662681 L160.713462,52.7835145 C163.348659,51.5467583 166.245061,50.9679722 169.153632,51.0969203 L180.024573,51.7209601 C180.216025,51.7305332 180.401902,51.78857 180.564744,51.8896196 L177.002991,49.7645109 Z"/>
      <path fill="url(#laptop-g)" d="M32.1358974,75.9910507 L31.7645299,76.4295652 C31.4446268,76.7688808 31.1004885,77.0845416 30.7348291,77.374058 C29.5346288,78.2327225 28.09211,78.6875552 26.6160256,78.6727355 C24.6625007,78.5291986 22.7654321,77.9530739 21.0623932,76.9861413 C17.4759136,75.2473158 14.2690204,72.8169709 11.6262821,69.8349819 C10.4306337,68.3385286 9.54675919,66.618164 9.0267094,64.7751993 C7.91269858,60.3133283 7.28447977,55.7442492 7.15299145,51.1475181 L7.15299145,50.9113949 C7.15299145,50.7596014 7.15299145,50.5740761 7.15299145,50.4054167 C7.17487762,50.2456908 7.20873343,50.0878318 7.2542735,49.9331703 C7.45511944,48.4640203 8.76158138,47.4020427 10.242094,47.5044746 C10.8120506,47.5172905 11.378562,47.5965344 11.9301282,47.7405978 C11.912766,47.9820318 11.912766,48.2243994 11.9301282,48.4658333 C12.0623729,53.0680573 12.6905716,57.6426452 13.8038462,62.1103804 C14.3147156,63.9569372 15.199498,65.6790691 16.4034188,67.170163 C18.091453,69.2952717 20.1846154,71.0830616 25.8226496,74.3381884 C27.6979046,75.5452253 29.9091822,76.1241568 32.1358974,75.9910507 Z"/>
      <path fill="url(#laptop-h)" d="M44.3910256,70.5096196 L44.6779915,70.678279 C43.4794872,74.9622283 41.3019231,79.11125 37.9258547,80.9833696 L33.25,83.7493841 C36.7611111,81.7086051 38.9217949,77.357192 40.1034188,72.8708514 C40.240847,72.3303246 40.4691652,71.8170469 40.7786325,71.3529167 L40.9811966,71.0830616 C41.050051,71.0058081 41.1233216,70.9326 41.200641,70.8638043 L41.2850427,70.8638043 C41.2850427,70.8638043 41.3694444,70.7794746 41.4200855,70.7626087 L41.6564103,70.6108152 L41.8083333,70.5264855 C42.5946908,70.1869039 43.4865058,70.1869039 44.2728632,70.5264855 L44.3910256,70.5096196 Z"/>
      <path fill="url(#laptop-i)" d="M80.059188,104.71375 C79.957906,105.034203 79.8397436,105.354656 79.7215812,105.641377 C79.4530226,106.305118 78.9800684,106.866272 78.3711538,107.243641 C77.9810661,107.472021 77.5401163,107.599555 77.0882479,107.614692 C75.4002137,107.74962 73.3070513,107.176178 67.6690171,103.921051 C62.0309829,100.665924 57.6252137,94.4761232 54.8737179,85.3685145 C54.2491453,83.3108696 53.1856838,81.3038225 53.3882479,79.397971 C52.8058651,77.7583889 53.3276872,75.9301837 54.6880342,74.8441667 C55.3981052,74.4709081 56.234788,74.4217334 56.9837607,74.7092391 L58.0472222,75.046558 C58.0482896,75.5850199 58.1048558,76.1219404 58.2160256,76.6488225 C58.6037441,78.629307 59.0939315,80.5883838 59.6846154,82.5181703 C62.4361111,91.5414493 66.7237179,97.7987138 72.4292735,101.070707 C74.7882026,102.637962 77.3568833,103.864426 80.059188,104.71375 Z"/>
      <path fill="url(#laptop-j)" d="M91.2002137,84.0361051 C86.5203964,80.1057872 81.598563,76.4724831 76.4636752,73.1575725 C62.9594017,65.3823732 54.5192308,63.9656341 49.2525641,60.9634964 C43.9858974,57.9613587 35.5457265,49.5621196 22.0752137,41.7869203 C17.3187026,39.2999932 12.360836,37.2181115 7.2542735,35.5633877 C6.87341594,35.3909284 6.43662679,35.3909284 6.05576923,35.5633877 L1.22799145,38.3968659 C1.61458297,38.2236963 2.05678455,38.2236963 2.44337607,38.3968659 C7.54325304,40.054933 12.4952358,42.136715 17.2474359,44.6203986 C30.7517094,52.3787319 39.1918803,60.794837 44.4247863,63.7969746 C49.6576923,66.7991123 58.1653846,68.2158514 71.6527778,75.9910507 C76.802224,79.3021225 81.7407978,82.9296663 86.4399573,86.8527174 C87.5276594,87.8063237 88.1898825,89.1539211 88.2799145,90.5969565 L88.2799145,92.502808 C88.2876996,92.8492494 88.2063267,93.1918855 88.0435897,93.4978986 L86.7438034,94.2568659 C86.5664588,94.4401695 86.5076818,94.7077031 86.5918803,94.9483696 C86.6135944,96.0070871 86.5684908,97.0661195 86.4568376,98.1191667 C86.3414189,102.266729 85.5957976,106.372678 84.2455128,110.296377 C83.7705342,111.491787 82.9167569,112.498859 81.8147436,113.163587 L86.5918803,110.330109 C87.6950814,109.659144 88.5486488,108.646398 89.0226496,107.446033 C90.3729343,103.522334 91.1185557,99.4163846 91.2339744,95.2688225 C91.3459867,94.2158019 91.3910914,93.1567468 91.3690171,92.0980254 C91.3596561,92.0252388 91.3596561,91.9515546 91.3690171,91.8787681 L92.4324786,91.2715942 C92.9268602,90.9237828 93.1972961,90.3383381 93.141453,89.7367935 L93.141453,87.830942 C93.0467356,86.3523979 92.3441065,84.9788614 91.2002137,84.0361051 Z"/>
      <path fill="url(#laptop-k)" d="M88.2799145,90.5969565 C88.1904217,89.1197905 87.501482,87.7430864 86.3724359,86.7852536 C81.6746343,82.8529588 76.7298482,79.2249933 71.5683761,75.923587 C58.0641026,68.1483877 49.6239316,66.7316486 44.357265,63.7295109 C39.0905983,60.7273732 30.7179487,52.3112681 17.2474359,44.5529348 C15.6944444,43.6759058 2.84850427,37.6041667 1.29551282,38.3462681 L1.29551282,38.3462681 C0.789154787,38.6931237 0.511198507,39.2873135 0.56965812,39.8979348 C0.25686345,41.6875096 0.716816572,43.5257527 1.83568376,44.9577174 C2.14106324,45.3110721 2.31932991,45.7563586 2.34209402,46.222663 C2.33933648,52.3058074 3.08196896,58.3664097 4.5534188,64.269221 C5.50406813,67.5747756 7.11155195,70.65507 9.27991453,73.3262319 C12.115812,76.6994203 15.0698718,79.0943841 21.0961538,82.5181703 C24.9955128,84.7782065 29.4181624,86.0094203 33.3175214,83.7493841 C33.4869482,83.6524164 33.6504169,83.5454076 33.8070513,83.4289312 L34.0940171,83.2265399 L34.2628205,83.1422101 C37.1831197,80.9159058 39.0399573,76.9861413 40.1202991,72.9383152 C40.2503234,72.3952545 40.4792017,71.8807176 40.7955128,71.4203804 C40.8361348,71.3356697 40.8871695,71.2563502 40.9474359,71.1842572 L40.9474359,71.1842572 C41.0471574,71.064724 41.1604541,70.957184 41.2850427,70.8638043 L41.5551282,70.6445471 L41.6395299,70.6445471 L41.6395299,70.6445471 C42.4686189,70.2572875 43.4268939,70.2572875 44.2559829,70.6445471 L44.3910256,70.6445471 C46.6602141,72.4780328 48.1842127,75.0738141 48.6786325,77.9475 C50.8393162,88.8091667 56.308547,103.027156 67.6352564,109.554275 C73.5940171,112.927464 76.5480769,114.091214 79.4514957,113.922554 C80.6279728,113.856033 81.7469386,113.392177 82.625,112.607011 C83.3178965,111.983011 83.8603785,111.210346 84.2117521,110.346975 C86.4737179,104.747482 86.5918803,94.6110507 86.5918803,94.6110507 C86.576678,94.5790288 86.576678,94.541877 86.5918803,94.5098551 C86.5918803,94.4086594 86.7775641,94.24 86.8282051,94.24 C87.1010305,94.2014519 87.3677083,94.1277529 87.6215812,94.0207428 L87.6215812,94.0207428 L87.7735043,93.9195471 C87.8916667,93.7340217 87.908547,93.9195471 88.0773504,93.4978986 L88.0773504,93.4978986 L88.0773504,93.4978986 C88.273104,92.5441412 88.3412209,91.568633 88.2799145,90.5969565 L88.2799145,90.5969565 Z M30.7348291,77.374058 C24.8773504,81.5736775 14.5297009,73.4105616 11.6262821,69.8687138 C10.4239692,68.3765758 9.53936513,66.6547911 9.0267094,64.8089312 C7.71004274,60.0696014 6.8491453,51.5691667 7.33867521,49.8825725 C7.96324786,46.9141667 10.8160256,47.0659601 13.6012821,48.1959783 C19.8301282,50.6584058 29.1818376,57.860163 31.9333333,60.187663 C34.1118499,62.0691946 35.4335766,64.752993 35.5963675,67.6255435 C35.1457866,71.3368579 33.4288845,74.7796458 30.7348291,77.374058 Z M79.6878205,105.641377 C79.2845107,106.766511 78.2484654,107.542883 77.0544872,107.614692 L76.6324786,107.614692 C74.9444444,107.614692 72.8344017,106.889457 67.6690171,103.904185 C57.1525641,97.8493116 53.2869658,81.2869565 53.2869658,77.9643659 C53.2869658,75.4682065 54.7724359,74.0683333 56.9837607,74.759837 C62.0992827,76.4332003 67.0089192,78.679409 71.6190171,81.4556159 C75.5521368,83.6987862 81.6628205,88.4887138 81.6628205,93.9701449 C81.5967664,97.9350478 80.9425704,101.868243 79.7215812,105.641377 L79.6878205,105.641377 Z"/>
      <path fill="url(#laptop-l)" d="M31.865812,60.2719928 C29.1987179,57.9444928 19.7626068,50.7427355 13.5337607,48.280308 C12.3735577,47.7383097 11.099681,47.4837517 9.82008547,47.5382065 C9.57542346,47.9070735 9.40353944,48.3192433 9.31367521,48.7525543 C8.89166667,50.4391486 9.7525641,58.8721196 11.0017094,63.678913 C11.5143651,65.524773 12.3989692,67.2465577 13.6012821,68.7386957 C16.2514957,71.9769565 25.0967949,79.0269203 31.0724359,77.0367391 C33.4832417,74.4881268 35.0202895,71.2394532 35.4613248,67.760471 C35.329308,64.8802954 34.0315292,62.1773741 31.865812,60.2719928 Z" opacity=".75"/>
      <path fill="url(#laptop-m)" d="M71.6190171,81.4556159 C67.0112068,78.6618869 62.1014878,76.3986662 56.9837607,74.7092391 C56.6197446,74.587728 56.2359836,74.536222 55.8527778,74.5574457 C55.4846235,75.22205 55.3037733,75.9739781 55.3294872,76.7331522 C55.3294872,80.1063406 59.1950855,96.6180978 69.7115385,102.672971 C74.8769231,105.658243 77.0038462,106.383478 78.675,106.383478 L79.1307692,106.383478 L79.2826923,106.383478 C79.4614043,106.150639 79.608946,105.895496 79.7215812,105.624511 C80.9458661,101.84059 81.6001026,97.8957826 81.6628205,93.9195471 C81.6628205,88.4549819 75.5521368,83.6650543 71.6190171,81.4556159 Z" opacity=".75"/>
      <path fill="url(#laptop-n)" d="M59.6846154,91.1198007 C59.6846154,91.1198007 65.2213675,87.5779529 78.8944444,87.3418297 C76.8276095,84.9747977 74.3660922,82.9832973 71.6190171,81.4556159 C67.0112068,78.6618869 62.1014878,76.3986662 56.9837607,74.7092391 C56.6197446,74.587728 56.2359836,74.536222 55.8527778,74.5574457 C55.4846235,75.22205 55.3037733,75.9739781 55.3294872,76.7331522 C55.891358,81.7538549 57.3673405,86.6295879 59.6846154,91.1198007 Z"/>
      <path fill="url(#laptop-o)" d="M32.7942308,61.2164855 C32.5060605,60.891954 32.195853,60.5876464 31.865812,60.3057246 C29.1987179,57.9444928 19.7626068,50.7427355 13.5337607,48.280308 C12.3735577,47.7383097 11.099681,47.4837517 9.82008547,47.5382065 C9.57542346,47.9070735 9.40353944,48.3192433 9.31367521,48.7525543 C8.89166667,50.4391486 9.7525641,58.8721196 11.0017094,63.678913 C11.1198718,64.1174275 11.2717949,64.5390761 11.4237179,64.9607246 C11.5081197,64.9607246 17.5175214,61.0478261 32.7942308,61.2164855 Z"/>
    </g>
    <path fill="url(#laptop-p)" fill-rule="nonzero" d="M15.5928221,182.269945 L139.816196,254.336418 C143.699634,256.321059 148.293127,256.321059 152.176564,254.336418 L234.244049,206.387473 C237.593742,204.401522 237.593742,201.186974 234.244049,199.201022 L110.037423,127.117719 C106.148139,125.132839 101.549591,125.132839 97.6603067,127.117719 L15.5425767,175.033004 C12.1928834,177.018955 12.1928834,180.250334 15.5425767,182.236285"/>
    <g fill-rule="nonzero" transform="translate(93.298)">
      <path fill="#160C0C" d="M169.987507,72.9416383 C173.420943,74.9275897 175.012047,80.1280895 173.487936,84.5544049 L137.445237,191.341367 C135.954624,195.767683 131.968489,197.753634 128.535053,195.767683 L4.31167875,123.684379 C0.878243168,121.698428 -0.712861127,116.497928 0.811249303,112.054783 L36.8539487,5.2846503 C38.3445622,0.858334922 42.3641941,-1.11078637 45.7138873,0.875165018 L169.987507,72.9416383 Z"/>
      <path fill="url(#laptop-q)" d="M169.987507,72.9416383 L45.7138873,0.875165018 C42.3641941,-1.11078637 38.2943168,0.875165018 36.8037033,5.2846503 L0.811249303,112.071613 C-0.679364194,116.497928 0.894991634,121.698428 4.31167875,123.684379 L128.535053,195.750852 C131.968489,197.753634 135.954624,195.750852 137.445237,191.341367 L173.487936,84.5544049 C174.97855,80.1449196 173.487936,74.9275897 169.987507,72.9416383"/>
      <path fill="url(#laptop-r)" d="M174.677078,72.8406577 L50.3867094,0.774184439 C49.5138617,0.258953302 48.51824,-0.00861540303 47.5059732,-0.000201672728 L42.8833965,0.100980579 C43.8796192,0.0938926638 44.858672,0.361679231 45.7138873,0.875165018 L169.987507,72.9416383 C173.420943,74.9275897 175.012047,80.1280895 173.487936,84.5544049 L137.445237,191.341367 C136.729992,194.180417 134.316841,196.2618 131.415789,196.541867 L136.038366,196.440886 C138.945788,196.167568 141.367228,194.084822 142.084562,191.240387 L178.110513,84.4534243 C179.601127,80.043939 178.026771,74.8266091 174.677078,72.8406577 Z"/>
    </g>
    <polyline fill="url(#laptop-s)" fill-rule="nonzero" points="260.589 81.845 135.864 9.475 100.323 114.798 225.049 187.151 260.589 81.845"/>
    <path fill="url(#laptop-t)" fill-rule="nonzero" d="M221.263988,194.438105 C224.613681,196.424056 224.714172,199.655435 221.263988,201.641386 L139.196503,249.573501 C135.309181,251.566601 130.706708,251.566601 126.819387,249.573501 L2.59601227,177.507028 C-0.753680982,175.521076 -0.753680982,172.306528 2.59601227,170.303747 L84.6634969,122.354802 C88.5507993,120.38643 93.1365626,120.38643 97.023865,122.354802 L221.263988,194.438105 Z"/>
    <path d="M221.263988,194.438105 C224.613681,196.424056 224.714172,199.655435 221.263988,201.641386 L139.196503,249.573501 C135.309181,251.566601 130.706708,251.566601 126.819387,249.573501 L2.59601227,177.507028 C-0.753680982,175.521076 -0.753680982,172.306528 2.59601227,170.303747 L84.6634969,122.354802 C88.5507993,120.38643 93.1365626,120.38643 97.023865,122.354802 L221.263988,194.438105 Z"/>
    <path fill="url(#laptop-u)" fill-rule="nonzero" d="M221.263988,194.438105 L97.0406135,122.371632 C93.1513295,120.386752 88.552781,120.386752 84.6634969,122.371632 L2.59601227,170.320577 C-0.753680982,172.306528 -0.753680982,175.521076 2.59601227,177.507028 L126.819387,249.590331 C130.708671,251.575211 135.307219,251.575211 139.196503,249.590331 L221.263988,201.641386 C224.613681,199.655435 224.613681,196.424056 221.263988,194.438105"/>
    <path fill="url(#laptop-v)" fill-rule="nonzero" d="M164.821656,224.025415 C164.237881,224.039775 163.660511,223.900531 163.14681,223.621492 L48.3025767,156.95748 C47.749772,156.70213 47.3955238,156.146715 47.3955238,155.535337 C47.3955238,154.923959 47.749772,154.368543 48.3025767,154.113194 L84.881227,132.755801 C85.8830503,132.204979 87.0951092,132.204979 88.0969325,132.755801 L203.00816,199.419814 C203.538964,199.695248 203.883586,200.23394 203.912577,200.833542 C203.883586,201.433143 203.538964,201.971835 203.00816,202.24727 L166.429509,223.621492 C165.937598,223.894257 165.383433,224.033473 164.821656,224.025415 L164.821656,224.025415 Z"/>
    <g fill-rule="nonzero" transform="translate(48.078 131.275)">
      <path fill="url(#laptop-w)" d="M154.578918,67.8084588 C154.878426,67.903605 155.082017,68.1828432 155.082017,68.4984928 C155.082017,68.8141424 154.878426,69.0933806 154.578918,69.1885267 L117.983519,90.5627493 C117.235415,90.9408911 116.353341,90.9408911 115.605237,90.5627493 L0.660513107,23.8819069 C0.373761087,23.7791109 0.182313968,23.5062247 0.182313968,23.200288 C0.182313968,22.8943514 0.373761087,22.6214651 0.660513107,22.5186691 L37.3396542,1.14444656 C38.0799196,0.758237562 38.9609226,0.758237562 39.701188,1.14444656 L154.578918,67.8084588 Z"/>
      <path fill="url(#laptop-x)" d="M154.578918,69.1885267 L117.983519,90.5627493 C117.235415,90.9408911 116.353341,90.9408911 115.605237,90.5627493 L0.660513107,23.8819069 C0.378180703,23.7639176 0.184538956,23.497984 0.158059119,23.191873 L0.158059119,25.9351787 C0.188964593,26.2387796 0.37218736,26.50543 0.64376464,26.6420428 L115.554992,93.2892249 C116.303096,93.6673668 117.18517,93.6673668 117.933274,93.2892249 L154.578918,71.9318325 C154.852365,71.8061315 155.037751,71.542756 155.064624,71.2417985 L155.064624,68.4984928 C155.037751,68.7994503 154.852365,69.0628258 154.578918,69.1885267 Z"/>
    </g>
    <path fill="url(#laptop-y)" fill-rule="nonzero" d="M221.314233,201.641386 L139.246748,249.573501 C135.359427,251.566601 130.756954,251.566601 126.869632,249.573501 L2.59601227,177.507028 C1.13790329,176.867903 0.142648727,175.48066 0,173.888557 L0,180.755237 C0.146433403,182.340925 1.13234492,183.724069 2.5792638,184.373707 L126.819387,256.440181 C130.702824,258.424821 135.296317,258.424821 139.179755,256.440181 L221.247239,208.491236 C222.675736,207.852344 223.649325,206.487825 223.793006,204.923255 L223.793006,198.056576 C223.657891,199.608696 222.714691,200.972757 221.314233,201.641386 L221.314233,201.641386 Z"/>
    <path fill="url(#laptop-z)" fill-rule="nonzero" d="M209.473067,196.121115 L94.5618405,129.457102 C93.8176985,129.087195 92.9444487,129.087195 92.2003067,129.457102 L89.838773,130.83717 C89.5392646,130.932316 89.3356739,131.211555 89.3356739,131.527204 C89.3356739,131.842854 89.5392646,132.122092 89.838773,132.217238 L204.75,198.88125 C205.490265,199.267459 206.371268,199.267459 207.111534,198.88125 L209.473067,197.501183 C209.772576,197.406036 209.976167,197.126798 209.976167,196.811149 C209.976167,196.495499 209.772576,196.216261 209.473067,196.121115"/>
    <path fill="url(#laptop-A)" fill-rule="nonzero" d="M216.490675,200.278148 L214.14589,198.931741 C213.405624,198.545532 212.524621,198.545532 211.784356,198.931741 L168.372331,224.277866 C168.085579,224.380662 167.894132,224.653548 167.894132,224.959485 C167.894132,225.265422 168.085579,225.538308 168.372331,225.641104 L170.717117,227.004342 C171.463258,227.390706 172.349258,227.390706 173.095399,227.004342 L216.490675,201.759197 C216.785516,201.65482 216.982742,201.374874 216.982742,201.060748 C216.982742,200.746622 216.785516,200.466676 216.490675,200.362299" opacity=".05"/>
    <path fill="url(#laptop-B)" fill-rule="nonzero" d="M89.6880368,126.730627 L87.36,125.367389 C86.6138589,124.981025 85.7278589,124.981025 84.9817178,125.367389 L41.5864417,150.713514 C40.9332515,151.083776 40.9332515,151.70649 41.5864417,152.093582 L43.9144785,153.43999 C44.6606196,153.826354 45.5466196,153.826354 46.2927607,153.43999 L89.6880368,128.194845 C89.9875453,128.099699 90.1911359,127.820461 90.1911359,127.504811 C90.1911359,127.189162 89.9875453,126.909923 89.6880368,126.814777" opacity=".05"/>
    <path fill="url(#laptop-C)" fill-rule="nonzero" d="M129.649877,208.104143 L73.9109816,175.773528 C72.4232198,175.006568 70.6589275,175.006568 69.1711656,175.773528 L40.5480368,192.485814 C39.9664475,192.692991 39.5777795,193.245822 39.5777795,193.865882 C39.5777795,194.485941 39.9664475,195.038772 40.5480368,195.24595 L96.303681,227.576565 C97.7914428,228.343525 99.5557351,228.343525 101.043497,227.576565 L129.666626,210.864279 C130.973006,210.106925 130.973006,208.878328 129.666626,208.104143" opacity=".05"/>
    <path fill="url(#laptop-D)" fill-rule="nonzero" d="M263.28589,72.9416383 L139.01227,0.875165018 C135.662577,-1.11078637 131.592699,0.875165018 130.102086,5.2846503 L94.1096319,112.071613 L263.28589,72.9416383 Z"/>
  </g>
</svg>
