<svg xmlns="http://www.w3.org/2000/svg" width="59" height="45" viewBox="0 0 59 45">
  <path fill="#0982C3" d="M25.3191268,39.5733115 C25.3191268,47.214003 21.0993145,51.0342915 12.6595634,51.0342915 C4.21981227,51.0342915 0,47.214003 0,39.5733115 C0,32.8374387 1.68792491,26.579203 5.06382536,20.7984167 C8.43972582,15.0176303 12.5106035,10.4182041 17.2765807,7 L23.5318943,10.9208616 C20.2552851,16.4503094 18.617005,21.8791403 18.617005,27.2075173 C18.617005,28.0118006 18.6666499,28.7658049 18.7659411,29.4695528 C20.6524737,30.0727653 22.2162864,31.3043057 23.4574263,33.1642109 C24.6985662,35.024116 25.3191268,37.1604616 25.3191268,39.5733115 Z M58.3440748,39.5733115 C58.3440748,47.214003 54.1242626,51.0342915 45.6845114,51.0342915 C37.2447603,51.0342915 33.024948,47.214003 33.024948,39.5733115 C33.024948,32.8374387 34.7128729,26.579203 38.0887734,20.7984167 C41.4646738,15.0176303 45.5355516,10.4182041 50.3015287,7 L56.5568424,10.9208616 C53.2802331,16.4503094 51.641953,21.8791403 51.641953,27.2075173 C51.641953,28.0118006 51.6915979,28.7658049 51.7908891,29.4695528 C53.6774217,30.0727653 55.2412345,31.3043057 56.4823743,33.1642109 C57.7235142,35.024116 58.3440748,37.1604616 58.3440748,39.5733115 Z" transform="translate(0 -6.707)"/>
</svg>
