<svg xmlns="http://www.w3.org/2000/svg" xmlns:xlink="http://www.w3.org/1999/xlink" width="318" height="313" viewBox="0 0 318 313">
  <defs>
    <linearGradient id="table-b" x1="50%" x2="50%" y1="67.704%" y2="93.784%">
      <stop offset="0%" stop-color="#F2F2F2"/>
      <stop offset="100%" stop-color="#FAFAFA" stop-opacity="0"/>
    </linearGradient>
    <rect id="table-a" width="28" height="137" x="0" y="0"/>
    <filter id="table-c" width="100%" height="100%" x="0%" y="0%" filterUnits="objectBoundingBox">
      <feGaussianBlur in="SourceGraphic"/>
    </filter>
    <path id="table-e" d="M0,0 L21,0 L21,163 C17.6133333,165.666667 14.1133333,167 10.5,167 C6.88666667,167 3.38666667,165.666667 0,163 L0,0 Z"/>
    <filter id="table-f" width="185.7%" height="110.7%" x="-42.9%" y="-5.3%" filterUnits="objectBoundingBox">
      <feGaussianBlur in="SourceGraphic" stdDeviation="3"/>
    </filter>
    <linearGradient id="table-h" x1="8.848%" x2="100.519%" y1="58.304%" y2="39.814%">
      <stop offset="0%" stop-color="#292376"/>
      <stop offset="100%" stop-color="#5D278F" stop-opacity="0"/>
    </linearGradient>
    <linearGradient id="table-i" x1="0%" x2="100%" y1="49.619%" y2="49.619%">
      <stop offset="0%" stop-color="#292376"/>
      <stop offset="100%" stop-color="#5D278F"/>
    </linearGradient>
    <linearGradient id="table-j" x1="43.526%" x2="60.622%" y1="50.64%" y2="32.889%">
      <stop offset="0%" stop-color="#5D278F"/>
      <stop offset="100%" stop-color="#292376"/>
    </linearGradient>
    <linearGradient id="table-k" x1="39.64%" x2="53.977%" y1="84.543%" y2="19.614%">
      <stop offset="0%" stop-color="#292376"/>
      <stop offset="100%" stop-color="#5D278F"/>
    </linearGradient>
    <linearGradient id="table-l" x1="50.015%" x2="50.015%" y1="106.259%" y2="-.409%">
      <stop offset="0%" stop-color="#DBF9EA"/>
      <stop offset="97%" stop-color="#FFF"/>
    </linearGradient>
    <linearGradient id="table-m" x1="0%" x2="100%" y1="49.989%" y2="49.989%">
      <stop offset="0%" stop-color="#5D278F"/>
      <stop offset="100%" stop-color="#292376"/>
    </linearGradient>
    <linearGradient id="table-n" x1="0%" x2="100%" y1="50%" y2="50%">
      <stop offset="0%" stop-color="#DBF9EA"/>
      <stop offset="97%" stop-color="#FFF"/>
    </linearGradient>
    <linearGradient id="table-o" x1="92.028%" x2="-26.602%" y1="50.013%" y2="50.013%">
      <stop offset="0%" stop-color="#DBF9EA" stop-opacity="0"/>
      <stop offset="100%" stop-color="#8CCACE"/>
    </linearGradient>
    <linearGradient id="table-p" x1="92.044%" x2="-26.677%" y1="50.081%" y2="50.081%">
      <stop offset="0%" stop-color="#D1985C"/>
      <stop offset="100%" stop-color="#534741"/>
    </linearGradient>
    <linearGradient id="table-q" x1="49.971%" x2="49.971%" y1="2.893%" y2="100.205%">
      <stop offset="0%" stop-color="#FFF" stop-opacity=".25"/>
      <stop offset="100%" stop-color="#DBF9EA" stop-opacity="0"/>
    </linearGradient>
    <linearGradient id="table-r" x1="47%" x2="53%" y1="51%" y2="51%">
      <stop offset="0%" stop-color="#5D278F"/>
      <stop offset="100%" stop-color="#292376"/>
    </linearGradient>
    <linearGradient id="table-s" x1="29.611%" x2="126.982%" y1="54.81%" y2="31.843%">
      <stop offset="0%" stop-color="#292376"/>
      <stop offset="100%" stop-color="#5D278F" stop-opacity="0"/>
    </linearGradient>
    <linearGradient id="table-t" x1="3.759%" x2="101.138%" y1="61.805%" y2="37.298%">
      <stop offset="0%" stop-color="#292376"/>
      <stop offset="100%" stop-color="#5D278F" stop-opacity="0"/>
    </linearGradient>
    <linearGradient id="table-u" x1="27.528%" x2="125.507%" y1="59.277%" y2="18.835%">
      <stop offset="0%" stop-color="#B05E79"/>
      <stop offset="100%" stop-color="#FB5A3B"/>
    </linearGradient>
    <linearGradient id="table-v" x1="0%" x2="100%" y1="49.989%" y2="49.989%">
      <stop offset="0%" stop-color="#B05E79"/>
      <stop offset="100%" stop-color="#FB5A3B"/>
    </linearGradient>
    <linearGradient id="table-w" x1="0%" x2="100%" y1="50%" y2="50%">
      <stop offset="0%" stop-color="#B05E79"/>
      <stop offset="100%" stop-color="#FB5A3B"/>
    </linearGradient>
    <linearGradient id="table-x" x1="0%" x2="100%" y1="49.988%" y2="49.988%">
      <stop offset="0%" stop-color="#B05E79"/>
      <stop offset="100%" stop-color="#FB5A3B"/>
    </linearGradient>
    <linearGradient id="table-y" x1="0%" x2="100%" y1="49.99%" y2="49.99%">
      <stop offset="0%" stop-color="#B05E79"/>
      <stop offset="100%" stop-color="#FB5A3B"/>
    </linearGradient>
    <linearGradient id="table-z" x1="0%" x2="100%" y1="49.989%" y2="49.989%">
      <stop offset="0%" stop-color="#B05E79"/>
      <stop offset="100%" stop-color="#FB5A3B"/>
    </linearGradient>
    <linearGradient id="table-A" x1="12.668%" x2="110.657%" y1="66.689%" y2="22.885%">
      <stop offset="0%" stop-color="#B05E79"/>
      <stop offset="100%" stop-color="#FB5A3B"/>
    </linearGradient>
    <linearGradient id="table-B" x1="61.941%" x2="45.608%" y1="59.826%" y2="44.855%">
      <stop offset="0%" stop-color="#DBF9EA"/>
      <stop offset="97%" stop-color="#FFF"/>
    </linearGradient>
    <linearGradient id="table-C" x1="12.145%" x2="113.247%" y1="36.946%" y2="67.138%">
      <stop offset="0%" stop-color="#DBF9EA"/>
      <stop offset="97%" stop-color="#FFF"/>
    </linearGradient>
    <linearGradient id="table-D" x1="67.449%" x2="38.461%" y1="67.304%" y2="38.843%">
      <stop offset="0%" stop-color="#DBF9EA"/>
      <stop offset="97%" stop-color="#FFF"/>
    </linearGradient>
    <linearGradient id="table-E" x1="99.482%" x2="-14.162%" y1="39.58%" y2="63.5%">
      <stop offset="0%" stop-color="#DBF9EA"/>
      <stop offset="97%" stop-color="#FFF"/>
    </linearGradient>
  </defs>
  <g fill="none" fill-rule="evenodd" transform="translate(-13)">
    <g opacity=".422" transform="translate(0 29)">
      <g opacity=".96" transform="translate(150 156)">
        <mask id="table-d" fill="#fff">
          <use xlink:href="#table-a"/>
        </mask>
        <use fill="url(#table-b)" filter="url(#table-c)" xlink:href="#table-a"/>
        <g mask="url(#table-d)">
          <g transform="translate(3 -36)">
            <mask id="table-g" fill="#fff">
              <use xlink:href="#table-e"/>
            </mask>
            <use fill="#8FDAE2" xlink:href="#table-e"/>
            <polygon fill="#2DC3D3" points="0 0 21 0 21 163 11.42 168.98 6.71 50.75" filter="url(#table-f)" mask="url(#table-g)"/>
          </g>
        </g>
      </g>
      <path fill="#2DC3D3" d="M98.4538005,0 L309.538471,0 C320.584166,-2.79079914e-14 329.538471,8.954305 329.538471,20 C329.538471,23.4801861 328.630349,26.9001379 326.90385,29.9218755 L262.911578,141.921875 C259.350861,148.153884 252.723708,152 245.546199,152 L34.4615288,152 C23.4158338,152 14.4615288,143.045695 14.4615288,132 C14.4615288,128.519814 15.3696512,125.099862 17.0961498,122.078125 L81.0884215,10.0781245 C84.649139,3.84611646 91.2762917,8.42391435e-15 98.4538005,0 Z" opacity=".5"/>
      <path fill="#2DC3D3" d="M329.645164,24.8042809 C330.03602,28.0403948 330.254656,30.9240358 330.254656,32.4902204 C330.254656,35.9636283 327.653714,41.5767894 325.933594,44.5943628 L263.495521,154.90451 C259.937496,161.146285 253.304889,165 246.120232,165 L34.7453438,165 C23.6996488,165 14.7453438,156.045695 14.7453438,145 C14.7453438,141.526592 13.0252237,131.937481 14.7453438,128.919907 L15.192844,128.207127 C14.8965391,129.58418 14.7453438,130.994207 14.7453438,132.414241 C14.7453438,143.459936 23.6996488,152.414241 34.7453438,152.414241 L246.120232,152.414241 C253.304889,152.414241 259.937496,148.560526 263.495521,142.318751 L327.629946,29.8089716 C328.528415,28.2328047 329.204385,26.5486102 329.645164,24.8042809 Z"/>
    </g>
    <g fill-rule="nonzero" transform="translate(76)">
      <g transform="translate(148)">
        <path fill="url(#table-h)" d="M45.66,87.24 C37.26,82.39 23.66,82.39 15.33,87.24 C7,92.09 7,100 15.43,104.81 C23.86,109.62 37.43,109.66 45.76,104.81 C54.09,99.96 54.07,92.09 45.66,87.24"/>
        <path fill="url(#table-i)" d="M50.61,64.12 C48.61,62.94 45.79,63.06 42.71,64.75 C42.7506364,64.441677 42.7706808,64.1309886 42.77,63.82 C42.7711237,62.853242 42.5843266,61.8954822 42.22,61 C43.6447291,60.7411429 45.115136,60.9850325 46.38,61.69 L50.61,64.12 Z"/>
        <path fill="url(#table-j)" d="M54,71.52 C54,78.75 49,87.58 42.71,91.34 L42.71,87.24 C47.01,84.61 50.46,78.55 50.44,73.57 C50.42,68.59 47.02,66.57 42.77,68.8 L42.77,64.72 C49,61.36 54,64.34 54,71.52 Z"/>
        <path fill="url(#table-k)" d="M50.43,73.57 C50.43,78.57 47,84.57 42.7,87.24 L42.7,80.75 C44.8177525,77.967733 46.0322518,74.6034304 46.18,71.11 C46.2091049,70.0131093 45.9939104,68.9234739 45.55,67.92 C46.4268899,67.8259969 47.3112694,68.0077666 48.08,68.44 C49.53,69.28 50.43,71.05 50.43,73.57 Z"/>
        <g transform="translate(1 51)">
          <path fill="url(#table-l)" d="M38.17,12.81 L38.17,12.81 C38.17,19.55 28.01,22.57 21.3,22.57 C17.1205653,22.6536012 12.9893458,21.6655512 9.3,19.7 C5.98,17.78 4.3,15.25 4.3,12.7 L4.3,12.7 C4.33,6 14.44,3 21.2,3 C27.96,3 38.17,6.05 38.17,12.81 Z"/>
          <path fill="url(#table-m)" d="M41.77,12.84 L41.67,47.34 C41.67,55.48 29.42,59.17 21.21,59.17 C13,59.17 0.61,55.44 0.61,47.24 L0.61,47.24 L0.71,12.74 L0.71,12.74 C0.71,20.94 13.05,24.67 21.31,24.67 C29.57,24.67 41.75,21 41.77,12.84 Z"/>
          <path fill="url(#table-n)" d="M21.17,0.89 C29.45,0.89 41.77,4.63 41.77,12.82 C41.77,21.01 29.46,24.67 21.31,24.67 C13.16,24.67 0.71,21 0.71,12.74 C0.71,4.48 13,0.89 21.17,0.89 Z M9.3,19.72 C12.9910833,21.6809608 17.1210927,22.6687214 21.3,22.59 C28.02,22.59 38.17,19.59 38.17,12.81 C38.17,6.03 28,3 21.19,3 C14.38,3 4.31,6 4.31,12.75 C4.31,15.28 5.98,17.75 9.31,19.75 L9.3,19.72 Z"/>
        </g>
        <path fill="url(#table-o)" d="M39.17,63.81 L39.17,63.81 C39.17,70.55 29.01,73.57 22.3,73.57 C18.1205653,73.6536012 13.9893458,72.6655512 10.3,70.7 C6.98,68.78 5.3,66.25 5.3,63.7 L5.3,63.7 C5.33,57 15.44,54 22.2,54 C28.96,54 39.17,57.05 39.17,63.81 Z"/>
        <path fill="url(#table-p)" d="M7.65,68.71 C8.44132786,69.4905452 9.33238217,70.163039 10.3,70.71 C13.9893458,72.6755512 18.1205653,73.6636012 22.3,73.58 C27.05,73.58 33.51,72.07 36.89,68.8 C37.09,68.6 33.15,66.31 32.8,66.16 C32.14,65.86 31.39,65.72 30.8,65.42 C30.0055761,64.875209 29.1538215,64.4191515 28.26,64.06 C27.2687898,63.8724926 26.2512102,63.8724926 25.26,64.06 C23.71,64.25 22.41,63.98 20.9,64.06 C19.2743829,64.1291137 17.6597181,64.3602586 16.08,64.75 C14.4590232,65.1103501 12.880367,65.6399206 11.37,66.33 C11,66.43 7.48,68.54 7.65,68.71 Z"/>
        <path fill="url(#table-q)" d="M13.46,59.21 C11.3,53.75 15.46,46.53 11.57,42.12 C9.99,40.33 7.57,39.66 5.5,38.41 C2.28490163,36.4038561 0.251259109,32.9548321 0.0520793616,29.1704169 C-0.147100386,25.3860017 1.51325429,21.7425568 4.5,19.41 C7.14,17.36 10.6,16.51 13.06,14.25 C15.28,12.25 16.43,9.25 17.81,6.61 C19.19,3.97 21.11,1.17 24,0.3 C26.0381154,-0.187866936 28.1777115,-0.0270476273 30.12,0.76 C32.0020524,1.35167682 33.729973,2.35223162 35.18,3.69 C40.09,8.52 39.09,17.62 44.64,21.69 C47.36,23.69 51.01,23.9 53.96,25.55 C58.4277896,28.2071887 60.4255959,33.6292101 58.75,38.55 C57.27,42.55 53.54,45.3 49.63,46.97 C45.72,48.64 41.49,49.46 37.5,50.97 C36.5787394,51.2487091 35.7267883,51.7189861 35,52.35 C33.46,53.89 33.56,56.35 32.81,58.44 C31.81,61.19 29.3,63.07 26.92,64.78 C25.92,65.5 23.58,67.96 22.38,67.9904161 C21.18,68.02 20.12,66.42 19.26,65.66 C17.08,63.74 14.57,62 13.46,59.21 Z"/>
        <path fill="url(#table-r)" d="M42.77,63.84 L42.77,64.72 C42.7505887,64.7131371 42.7294113,64.7131371 42.71,64.72 C42.7492215,64.4282943 42.7692645,64.1343298 42.77,63.84 Z"/>
      </g>
      <g transform="translate(0 88)">
        <polygon fill="url(#table-s)" points="8 43.3 78.48 2.34 117.89 22.55 47.41 63.51"/>
        <path fill="url(#table-t)" d="M52.23,66.29 L122.71,25.29 L162.11,50.58 L94.8,89.74 C92.8550051,90.8680967 90.4425307,90.8140572 88.55,89.6 L52.23,66.29 Z"/>
        <g transform="translate(0 1)">
          <polygon fill="url(#table-u)" points="0 41.3 70.48 .34 109.89 20.55 39.41 61.51"/>
          <polygon fill="url(#table-v)" points="39.41 61.51 109.89 20.55 110.01 23.16 39.53 64.12"/>
          <polygon fill="url(#table-w)" points="39.53 64.12 110.01 23.16 114.58 25.8 44.1 66.76"/>
          <polygon fill="url(#table-x)" points="46.9 69.28 117.38 28.32 117.26 30.61 46.78 71.57"/>
          <polygon fill="url(#table-y)" points="44.23 64.29 83.63 89.58 83.46 92.75 46.9 69.28 46.78 71.57 36.84 65.83 36.73 63.41 .15 44.65 0 41.3 39.41 61.51 39.53 64.12 44.1 66.76"/>
          <polygon fill="url(#table-z)" points="83.63 89.58 154.11 48.62 153.94 51.79 83.46 92.75"/>
          <polygon fill="url(#table-A)" points="44.23 64.29 114.71 23.33 154.11 48.62 83.63 89.58"/>
        </g>
        <g transform="translate(6)">
          <polygon fill="#FFF" points="105.17 25.06 105.04 27.52 43.68 63.17 42.82 62.62 41.67 63.29 41.74 61.92"/>
          <path fill="url(#table-B)" d="M0.76,36.86 L64.19,0 C73.7942667,1.12797988 83.0834427,4.13150278 91.53,8.84 C100.53,14.02 102.42,20.9 102.76,24.62 L39.33,61.49 C39,57.76 37.07,50.88 28.1,45.71 C19.6525153,41.0018334 10.3640753,37.9951511 0.76,36.86 Z"/>
          <path fill="url(#table-C)" d="M77.92,81.41 L77.66,85 L42.82,62.62 L41.74,61.92 L41.67,63.29 L40.67,63.85 L37,61.75 L36.88,59.14 L1,40.71 L0.77,36.86 C10.3738775,37.9897633 19.6627141,40.9931764 28.11,45.7 C37.11,50.88 38.99,57.76 39.33,61.48 C39.69,58.16 41.64,53.48 50.6,58.69 C63.51,66.15 77.2,80.64 77.92,81.41 Z"/>
          <path fill="url(#table-D)" d="M114,21.83 C109.48,19.22 106.74,19.11 105.09,20.07 L41.69,56.93 C43.34,55.93 46.08,56.08 50.6,58.7 C63.51,66.15 77.19,80.7 77.91,81.41 L141.35,44.55 C140.63,43.78 126.94,29.29 114,21.83 Z"/>
          <polygon fill="url(#table-E)" points="77.91 81.41 141.35 44.55 141.09 48.12 77.66 84.98"/>
        </g>
        <path fill="#4E7FFF" d="M76.27 30.32L50.8 45.12C48.8945538 42.9459256 46.6320813 41.1129509 44.11 39.7 37.7009689 36.1056207 30.7815055 33.5091359 23.59 32L49.12 17.15C56.2743627 18.6620303 63.1566418 21.2551085 69.53 24.84 72.0754601 26.2649293 74.3556495 28.1188519 76.27 30.32zM102.89 63.06L89.43 70.88C84.21 65.81 75.24 57.68 66.61 52.69 65.98 52.33 65.39 52.01 64.83 51.75L78.31 43.91C78.85 44.18 79.42 44.48 80.03 44.83 88.68 49.83 97.67 58 102.89 63.06zM135.78 43.94L106.69 60.85C101.45 55.77 92.57 47.76 84.03 42.85 83.31 42.43 82.64 42.08 82.03 41.78L111.17 24.85C111.76 25.13 112.39 25.46 113.06 25.85 121.63 30.79 130.55 38.86 135.78 43.94z" opacity=".08"/>
      </g>
    </g>
  </g>
</svg>
