<svg xmlns="http://www.w3.org/2000/svg" xmlns:xlink="http://www.w3.org/1999/xlink" width="22" height="24" viewBox="0 0 22 24">
  <defs>
    <path id="hand-point-down-a" d="M10.35,24 C12.48825,24 14.25,22.2297656 14.25,20.1 L14.25,18.4290469 C14.6090279,18.3492109 14.9565299,18.2243313 15.28425,18.057375 C16.3157813,18.1748906 17.3925938,17.8931719 18.2275781,17.3080781 C20.6879062,17.2546875 22.5,15.5550469 22.5,12.6233906 L22.5,11.625 C22.5,8.80954688 20.625,7.00725 20.625,5.6625 L20.625,5.53692187 C20.857125,5.26753125 21,4.90242187 21,4.50004687 L21,1.5 C21,0.671578125 20.3955937,0 19.65,0 L8.85,0 C8.10440625,0 7.5,0.671578125 7.5,1.5 L7.5,4.5 C7.5,4.902375 7.642875,5.26748438 7.875,5.536875 L7.875,5.66245313 C7.875,5.98889062 7.58470312,6.35910938 6.7655625,7.07728125 L6.758625,7.08332812 L6.75178125,7.08946875 C6.28598437,7.50459375 5.77485938,7.93865625 5.19304688,8.30123437 C3.77517187,9.17803125 1.5,9.72590625 1.5,11.85 C1.5,14.5185 3.15403125,16.1625 5.4,16.1625 C5.77621875,16.1625 6.12604688,16.1243438 6.45,16.0605 L6.45,20.1 C6.45,22.2140156 8.23598437,24 10.35,24 Z M10.35,21.75 C9.4734375,21.75 8.7,20.9636719 8.7,20.1 L8.7,12.675 C7.88789063,12.675 7.05,13.9125 5.4,13.9125 C4.1625,13.9125 3.75,12.9457031 3.75,11.85 C3.75,11.4377812 5.283375,10.8916406 6.3796875,10.2128437 C7.06289063,9.7875 7.65585938,9.29765625 8.24882813,8.76914063 C9.11010938,8.01403125 9.966,7.18307813 10.1048906,6 L18.3901406,6 C18.5665781,8.00578125 20.25,9.49260938 20.25,11.625 L20.25,12.6233906 C20.25,14.5229531 19.2095156,15.3010781 17.3753906,14.9953125 C17.0003437,15.68025 15.782625,16.1273906 14.8617187,15.6011719 C14.0074219,16.5089063 12.6876094,16.4349375 12,15.8332031 L12,20.1 C12,20.9894531 11.2394531,21.75 10.35,21.75 Z M16.875,3 C16.875,2.37867187 17.3786719,1.875 18,1.875 C18.6213281,1.875 19.125,2.37867187 19.125,3 C19.125,3.62132812 18.6213281,4.125 18,4.125 C17.3786719,4.125 16.875,3.62132812 16.875,3 Z"/>
  </defs>
  <g fill="none" fill-rule="evenodd" transform="translate(-1)">
    <mask id="hand-point-down-b" fill="#fff">
      <use xlink:href="#hand-point-down-a"/>
    </mask>
    <g fill="#4CAAF0" mask="url(#hand-point-down-b)">
      <rect width="24" height="24"/>
    </g>
  </g>
</svg>
